<mxfile host="app.diagrams.net" agent="Mozilla/5.0 (Windows NT 10.0; Win64; x64; rv:144.0) Gecko/20100101 Firefox/144.0" version="28.2.7">
  <diagram name="Sivu-1" id="T1mMdDDaBj58KGBTBJrq">
    <mxGraphModel dx="1665" dy="751" grid="1" gridSize="10" guides="1" tooltips="1" connect="1" arrows="1" fold="1" page="1" pageScale="1" pageWidth="1169" pageHeight="827" math="0" shadow="0">
      <root>
        <mxCell id="0" />
        <mxCell id="1" parent="0" />
        <mxCell id="7n1l-1wcskT07XeDps-x-3" style="edgeStyle=orthogonalEdgeStyle;rounded=0;orthogonalLoop=1;jettySize=auto;html=1;exitX=0.5;exitY=0.5;exitDx=0;exitDy=0;exitPerimeter=0;" parent="1" source="7n1l-1wcskT07XeDps-x-1" edge="1">
          <mxGeometry relative="1" as="geometry">
            <mxPoint x="120" y="320" as="targetPoint" />
          </mxGeometry>
        </mxCell>
        <mxCell id="7n1l-1wcskT07XeDps-x-1" value="Actor" style="shape=umlActor;verticalLabelPosition=bottom;verticalAlign=top;html=1;outlineConnect=0;" parent="1" vertex="1">
          <mxGeometry x="70" y="290" width="30" height="60" as="geometry" />
        </mxCell>
        <mxCell id="7n1l-1wcskT07XeDps-x-4" style="edgeStyle=orthogonalEdgeStyle;rounded=0;orthogonalLoop=1;jettySize=auto;html=1;exitX=0.875;exitY=0.5;exitDx=0;exitDy=0;exitPerimeter=0;" parent="1" edge="1">
          <mxGeometry relative="1" as="geometry">
            <mxPoint x="410" y="320" as="targetPoint" />
            <mxPoint x="260" y="319.5" as="sourcePoint" />
          </mxGeometry>
        </mxCell>
        <mxCell id="7n1l-1wcskT07XeDps-x-6" value="create data from" style="swimlane;fontStyle=0;childLayout=stackLayout;horizontal=1;startSize=30;horizontalStack=0;resizeParent=1;resizeParentMax=0;resizeLast=0;collapsible=1;marginBottom=0;whiteSpace=wrap;html=1;" parent="1" vertex="1">
          <mxGeometry x="120" y="260" width="140" height="150" as="geometry" />
        </mxCell>
        <mxCell id="7n1l-1wcskT07XeDps-x-7" value="what type&lt;span style=&quot;white-space: pre;&quot;&gt;&#x9;&lt;/span&gt;" style="text;strokeColor=none;fillColor=none;align=left;verticalAlign=middle;spacingLeft=4;spacingRight=4;overflow=hidden;points=[[0,0.5],[1,0.5]];portConstraint=eastwest;rotatable=0;whiteSpace=wrap;html=1;" parent="7n1l-1wcskT07XeDps-x-6" vertex="1">
          <mxGeometry y="30" width="140" height="30" as="geometry" />
        </mxCell>
        <mxCell id="7n1l-1wcskT07XeDps-x-8" value="name&lt;span style=&quot;white-space: pre;&quot;&gt;&#x9;&lt;/span&gt;" style="text;strokeColor=none;fillColor=none;align=left;verticalAlign=middle;spacingLeft=4;spacingRight=4;overflow=hidden;points=[[0,0.5],[1,0.5]];portConstraint=eastwest;rotatable=0;whiteSpace=wrap;html=1;" parent="7n1l-1wcskT07XeDps-x-6" vertex="1">
          <mxGeometry y="60" width="140" height="30" as="geometry" />
        </mxCell>
        <mxCell id="7n1l-1wcskT07XeDps-x-9" value="age&lt;span style=&quot;white-space: pre;&quot;&gt;&#x9;&lt;/span&gt;" style="text;strokeColor=none;fillColor=none;align=left;verticalAlign=middle;spacingLeft=4;spacingRight=4;overflow=hidden;points=[[0,0.5],[1,0.5]];portConstraint=eastwest;rotatable=0;whiteSpace=wrap;html=1;" parent="7n1l-1wcskT07XeDps-x-6" vertex="1">
          <mxGeometry y="90" width="140" height="30" as="geometry" />
        </mxCell>
        <mxCell id="7n1l-1wcskT07XeDps-x-10" value="email" style="text;strokeColor=none;fillColor=none;align=left;verticalAlign=middle;spacingLeft=4;spacingRight=4;overflow=hidden;points=[[0,0.5],[1,0.5]];portConstraint=eastwest;rotatable=0;whiteSpace=wrap;html=1;" parent="7n1l-1wcskT07XeDps-x-6" vertex="1">
          <mxGeometry y="120" width="140" height="30" as="geometry" />
        </mxCell>
        <mxCell id="7n1l-1wcskT07XeDps-x-11" value="" style="endArrow=none;dashed=1;html=1;dashPattern=1 3;strokeWidth=2;rounded=0;" parent="1" edge="1">
          <mxGeometry width="50" height="50" relative="1" as="geometry">
            <mxPoint x="340" y="810" as="sourcePoint" />
            <mxPoint x="340" y="10" as="targetPoint" />
          </mxGeometry>
        </mxCell>
        <mxCell id="7n1l-1wcskT07XeDps-x-12" value="front" style="text;html=1;align=center;verticalAlign=middle;whiteSpace=wrap;rounded=0;" parent="1" vertex="1">
          <mxGeometry x="130" y="110" width="60" height="30" as="geometry" />
        </mxCell>
        <mxCell id="7n1l-1wcskT07XeDps-x-13" value="Back" style="text;html=1;align=center;verticalAlign=middle;whiteSpace=wrap;rounded=0;" parent="1" vertex="1">
          <mxGeometry x="450" y="110" width="60" height="30" as="geometry" />
        </mxCell>
        <mxCell id="7n1l-1wcskT07XeDps-x-18" value="&lt;div&gt;Check data:&lt;/div&gt;&lt;div&gt;&lt;br&gt;&lt;/div&gt;&lt;div&gt;if type in both tables&lt;/div&gt;&lt;div&gt;--&amp;gt; fragment&lt;/div&gt;&lt;div&gt;&lt;br&gt;&lt;/div&gt;&lt;div&gt;if not&lt;/div&gt;&lt;div&gt;--&amp;gt; save to correct db&lt;/div&gt;" style="ellipse;shape=cloud;whiteSpace=wrap;html=1;" parent="1" vertex="1">
          <mxGeometry x="390" y="170" width="196" height="290" as="geometry" />
        </mxCell>
        <mxCell id="7n1l-1wcskT07XeDps-x-19" value="&lt;div&gt;Create mongo&lt;/div&gt;&lt;div&gt;data&lt;/div&gt;" style="ellipse;shape=cloud;whiteSpace=wrap;html=1;" parent="1" vertex="1">
          <mxGeometry x="610" y="190" width="120" height="80" as="geometry" />
        </mxCell>
        <mxCell id="7n1l-1wcskT07XeDps-x-20" value="&lt;div&gt;Create SQL&lt;/div&gt;&lt;div&gt;data&lt;/div&gt;" style="ellipse;shape=cloud;whiteSpace=wrap;html=1;" parent="1" vertex="1">
          <mxGeometry x="610" y="360" width="120" height="80" as="geometry" />
        </mxCell>
        <mxCell id="7n1l-1wcskT07XeDps-x-23" style="edgeStyle=orthogonalEdgeStyle;rounded=0;orthogonalLoop=1;jettySize=auto;html=1;exitX=0.96;exitY=0.7;exitDx=0;exitDy=0;exitPerimeter=0;entryX=0.07;entryY=0.4;entryDx=0;entryDy=0;entryPerimeter=0;" parent="1" source="7n1l-1wcskT07XeDps-x-18" target="7n1l-1wcskT07XeDps-x-20" edge="1">
          <mxGeometry relative="1" as="geometry" />
        </mxCell>
        <mxCell id="7n1l-1wcskT07XeDps-x-24" style="edgeStyle=orthogonalEdgeStyle;rounded=0;orthogonalLoop=1;jettySize=auto;html=1;exitX=0.88;exitY=0.25;exitDx=0;exitDy=0;exitPerimeter=0;entryX=0.1;entryY=0.513;entryDx=0;entryDy=0;entryPerimeter=0;" parent="1" source="7n1l-1wcskT07XeDps-x-18" target="7n1l-1wcskT07XeDps-x-19" edge="1">
          <mxGeometry relative="1" as="geometry" />
        </mxCell>
        <mxCell id="7n1l-1wcskT07XeDps-x-25" value="Save to db" style="text;html=1;align=center;verticalAlign=middle;whiteSpace=wrap;rounded=0;" parent="1" vertex="1">
          <mxGeometry x="760" y="215" width="60" height="30" as="geometry" />
        </mxCell>
        <mxCell id="7n1l-1wcskT07XeDps-x-26" value="save to db" style="text;html=1;align=center;verticalAlign=middle;whiteSpace=wrap;rounded=0;" parent="1" vertex="1">
          <mxGeometry x="760" y="399" width="60" height="30" as="geometry" />
        </mxCell>
        <mxCell id="7n1l-1wcskT07XeDps-x-27" value="Actor" style="shape=umlActor;verticalLabelPosition=bottom;verticalAlign=top;html=1;outlineConnect=0;" parent="1" vertex="1">
          <mxGeometry x="70" y="580" width="30" height="60" as="geometry" />
        </mxCell>
        <mxCell id="7n1l-1wcskT07XeDps-x-28" value="Fetch data" style="swimlane;fontStyle=0;childLayout=stackLayout;horizontal=1;startSize=30;horizontalStack=0;resizeParent=1;resizeParentMax=0;resizeLast=0;collapsible=1;marginBottom=0;whiteSpace=wrap;html=1;" parent="1" vertex="1">
          <mxGeometry x="120" y="590" width="140" height="60" as="geometry" />
        </mxCell>
        <mxCell id="7n1l-1wcskT07XeDps-x-29" value="show all tables&lt;span style=&quot;white-space: pre;&quot;&gt;&#x9;&lt;/span&gt;" style="text;strokeColor=none;fillColor=none;align=left;verticalAlign=middle;spacingLeft=4;spacingRight=4;overflow=hidden;points=[[0,0.5],[1,0.5]];portConstraint=eastwest;rotatable=0;whiteSpace=wrap;html=1;" parent="7n1l-1wcskT07XeDps-x-28" vertex="1">
          <mxGeometry y="30" width="140" height="30" as="geometry" />
        </mxCell>
        <mxCell id="7n1l-1wcskT07XeDps-x-32" value="" style="endArrow=classic;startArrow=classic;html=1;rounded=0;" parent="1" edge="1">
          <mxGeometry width="50" height="50" relative="1" as="geometry">
            <mxPoint x="260" y="630" as="sourcePoint" />
            <mxPoint x="420" y="630" as="targetPoint" />
          </mxGeometry>
        </mxCell>
        <mxCell id="7n1l-1wcskT07XeDps-x-33" value="&lt;div&gt;Check data:&lt;/div&gt;&lt;div&gt;&lt;br&gt;&lt;/div&gt;&lt;div&gt;If data in both, check for&amp;nbsp;&lt;/div&gt;&lt;div&gt;similarity, return from other,&lt;/div&gt;&lt;div&gt;and fix differences&lt;/div&gt;&lt;div&gt;&lt;br&gt;&lt;/div&gt;&lt;div&gt;if data not in both,&amp;nbsp;&lt;/div&gt;&lt;div&gt;return from other&lt;/div&gt;" style="ellipse;shape=cloud;whiteSpace=wrap;html=1;" parent="1" vertex="1">
          <mxGeometry x="400" y="450" width="220" height="370" as="geometry" />
        </mxCell>
        <mxCell id="7n1l-1wcskT07XeDps-x-34" value="mongoDBManager" style="text;html=1;align=center;verticalAlign=middle;resizable=0;points=[];autosize=1;strokeColor=none;fillColor=none;" parent="1" vertex="1">
          <mxGeometry x="610" y="170" width="120" height="30" as="geometry" />
        </mxCell>
        <mxCell id="7n1l-1wcskT07XeDps-x-35" value="SQLManager" style="text;html=1;align=center;verticalAlign=middle;resizable=0;points=[];autosize=1;strokeColor=none;fillColor=none;" parent="1" vertex="1">
          <mxGeometry x="625" y="340" width="90" height="30" as="geometry" />
        </mxCell>
        <mxCell id="7n1l-1wcskT07XeDps-x-36" value="data analyser" style="text;html=1;align=center;verticalAlign=middle;resizable=0;points=[];autosize=1;strokeColor=none;fillColor=none;" parent="1" vertex="1">
          <mxGeometry x="430" y="170" width="100" height="30" as="geometry" />
        </mxCell>
        <mxCell id="7n1l-1wcskT07XeDps-x-37" value="data analyser" style="text;html=1;align=center;verticalAlign=middle;resizable=0;points=[];autosize=1;strokeColor=none;fillColor=none;" parent="1" vertex="1">
          <mxGeometry x="460" y="460" width="100" height="30" as="geometry" />
        </mxCell>
        <mxCell id="7n1l-1wcskT07XeDps-x-43" value="" style="edgeStyle=orthogonalEdgeStyle;rounded=0;orthogonalLoop=1;jettySize=auto;html=1;entryX=0.88;entryY=0.25;entryDx=0;entryDy=0;entryPerimeter=0;" parent="1" source="7n1l-1wcskT07XeDps-x-38" target="7n1l-1wcskT07XeDps-x-33" edge="1">
          <mxGeometry relative="1" as="geometry" />
        </mxCell>
        <mxCell id="7n1l-1wcskT07XeDps-x-38" value="&lt;div&gt;transfer from db&amp;nbsp;&lt;/div&gt;&lt;div&gt;to json&lt;/div&gt;" style="ellipse;shape=cloud;whiteSpace=wrap;html=1;" parent="1" vertex="1">
          <mxGeometry x="650" y="510" width="145" height="80" as="geometry" />
        </mxCell>
        <mxCell id="7n1l-1wcskT07XeDps-x-39" value="&lt;div&gt;transfer from db&amp;nbsp;&lt;/div&gt;&lt;div&gt;to json&lt;/div&gt;" style="ellipse;shape=cloud;whiteSpace=wrap;html=1;" parent="1" vertex="1">
          <mxGeometry x="640" y="660" width="145" height="80" as="geometry" />
        </mxCell>
        <mxCell id="7n1l-1wcskT07XeDps-x-40" value="Fetch from db" style="text;html=1;align=center;verticalAlign=middle;resizable=0;points=[];autosize=1;strokeColor=none;fillColor=none;" parent="1" vertex="1">
          <mxGeometry x="780" y="528" width="100" height="30" as="geometry" />
        </mxCell>
        <mxCell id="7n1l-1wcskT07XeDps-x-41" value="Fetch from db" style="text;html=1;align=center;verticalAlign=middle;resizable=0;points=[];autosize=1;strokeColor=none;fillColor=none;" parent="1" vertex="1">
          <mxGeometry x="780" y="680" width="100" height="30" as="geometry" />
        </mxCell>
        <mxCell id="7n1l-1wcskT07XeDps-x-44" style="edgeStyle=orthogonalEdgeStyle;rounded=0;orthogonalLoop=1;jettySize=auto;html=1;exitX=0.07;exitY=0.4;exitDx=0;exitDy=0;exitPerimeter=0;entryX=0.96;entryY=0.7;entryDx=0;entryDy=0;entryPerimeter=0;" parent="1" source="7n1l-1wcskT07XeDps-x-39" target="7n1l-1wcskT07XeDps-x-33" edge="1">
          <mxGeometry relative="1" as="geometry" />
        </mxCell>
        <mxCell id="7n1l-1wcskT07XeDps-x-46" value="mongoDBManager" style="text;html=1;align=center;verticalAlign=middle;resizable=0;points=[];autosize=1;strokeColor=none;fillColor=none;" parent="1" vertex="1">
          <mxGeometry x="660" y="490" width="120" height="30" as="geometry" />
        </mxCell>
        <mxCell id="7n1l-1wcskT07XeDps-x-47" value="SQLManager" style="text;html=1;align=center;verticalAlign=middle;resizable=0;points=[];autosize=1;strokeColor=none;fillColor=none;" parent="1" vertex="1">
          <mxGeometry x="667.5" y="630" width="90" height="30" as="geometry" />
        </mxCell>
      </root>
    </mxGraphModel>
  </diagram>
</mxfile>
